<?xml version="1.0" encoding="utf-8"?>
<!-- Generator: Adobe Illustrator 22.1.0, SVG Export Plug-In . SVG Version: 6.00 Build 0)  -->
<svg version="1.1" id="Layer_1" xmlns="http://www.w3.org/2000/svg" xmlns:xlink="http://www.w3.org/1999/xlink" x="0px" y="0px"
	 viewBox="0 0 99.6 26" style="enable-background:new 0 0 99.6 26;" xml:space="preserve">
<style type="text/css">
	.st0{fill:#FFFFFF;}
</style>
<g>
	<polygon class="st0" points="34.3,13.9 36.3,13.9 35.3,11 	"/>
	<path class="st0" d="M50.4,10.4c-0.4,0-0.8,0.2-1.1,0.5c-0.5,0.5-0.5,1.4-0.5,2c0,0.6,0,1.5,0.5,2c0.3,0.3,0.7,0.5,1.1,0.5
		c0.4,0,0.8-0.2,1.1-0.5c0.5-0.5,0.5-1.4,0.5-2c0-0.6,0-1.5-0.5-2C51.2,10.6,50.8,10.4,50.4,10.4z"/>
	<path class="st0" d="M44.2,13.3h-1.6v1.9h1.6c0.6,0,1.2-0.2,1.2-0.9C45.4,13.6,44.9,13.3,44.2,13.3z"/>
	<path class="st0" d="M45.2,11.4c0-0.7-0.5-0.9-1.1-0.9h-1.6v1.8h1.6C44.8,12.2,45.2,12,45.2,11.4z"/>
	<path class="st0" d="M29.4,10.5h-1.7v2.1h1.7c0.7,0,1.1-0.4,1.1-1C30.6,11,30.1,10.5,29.4,10.5z"/>
	<path class="st0" d="M13.9,10.5h-1.4v2.3h1.4c0.8,0,1.2-0.5,1.2-1.1C15.1,11,14.7,10.5,13.9,10.5z"/>
	<path class="st0" d="M0,0v26h99.6V0H0z M13.9,13.9h-1.5v2.5h-1.3v-7h2.7c1.6,0,2.5,0.9,2.5,2.2C16.4,13,15.5,13.9,13.9,13.9z
		 M18.6,16.4h-1.3v-7h1.3V16.4z M25.2,10.5h-3.7v1.6h3.3v1.1h-3.3v1.9h3.7v1.2h-5v-7h5V10.5z M31.8,16.4h-1.4l-1.2-2.6h-1.5v2.6
		h-1.3v-7h3c1.7,0,2.4,1,2.4,2.2c0,0.9-0.5,1.7-1.3,2L31.8,16.4z M37.1,16.4l-0.5-1.3h-2.8l-0.5,1.3h-1.3l2.5-7H36l2.5,7H37.1z
		 M46,15.9c-0.5,0.4-1.2,0.5-1.9,0.5h-2.8v-7h2.8c0.6,0,1.1,0.1,1.6,0.4c0.5,0.3,0.8,0.9,0.8,1.5c0,0.6-0.3,1.2-0.9,1.5
		c0.7,0.3,1,0.9,1,1.6C46.7,15,46.5,15.5,46,15.9z M52.4,15.7c-0.5,0.5-1.3,0.8-2,0.8c-0.8,0-1.5-0.3-2-0.8
		c-0.8-0.8-0.9-1.7-0.9-2.8c0-1.1,0.1-2.1,0.9-2.8c0.5-0.5,1.3-0.8,2-0.8c0.8,0,1.5,0.3,2,0.8c0.8,0.8,0.9,1.7,0.9,2.8
		C53.3,14,53.1,15,52.4,15.7z M55.9,14.9c0.3,0.3,0.7,0.5,1.1,0.5c0.4,0,0.8-0.2,1.1-0.4c0.2-0.2,0.3-0.5,0.3-0.8h1.3
		c-0.1,0.6-0.3,1.1-0.7,1.5c-0.5,0.5-1.3,0.8-2,0.8s-1.5-0.2-2-0.8c-0.8-0.8-0.9-1.7-0.9-2.8c0-1.1,0.1-2.1,0.9-2.8
		c0.5-0.5,1.2-0.8,2-0.8s1.5,0.3,2,0.8c0.4,0.4,0.6,1,0.7,1.5h-1.3c0-0.3-0.1-0.5-0.3-0.7c-0.2-0.3-0.6-0.4-1.1-0.4
		c-0.4,0-0.8,0.2-1.1,0.5c-0.5,0.5-0.5,1.4-0.5,2C55.4,13.5,55.4,14.4,55.9,14.9z M66.1,16.4h-1.3v-3.1H62v3.1h-1.3v-7H62v2.7h2.9
		V9.4h1.3V16.4z M73.4,16.4H72l-3-4.8v4.8h-1.3v-7h1.4l3,4.7V9.4h1.3V16.4z M80,10.5h-3.7v1.6h3.3v1.1h-3.3v1.9H80v1.2h-5v-7h5V10.5
		z M86.6,16.4h-1.4L84,13.7h-1.5v2.6h-1.3v-7h3c1.7,0,2.4,1,2.4,2.2c0,0.9-0.5,1.7-1.3,2L86.6,16.4z"/>
	<path class="st0" d="M84.1,10.5h-1.7v2.1h1.7c0.7,0,1.1-0.4,1.1-1C85.3,11,84.9,10.5,84.1,10.5z"/>
</g>
</svg>
